<svg xmlns="http://www.w3.org/2000/svg" fill="none" viewBox="0 0 220 35"><g clip-path="url(#a)"><path fill="#fff" fill-rule="evenodd" d="M36.549 4.132C34.517 1.45 31.103.682 28.066.731h-8.7l8.05 12.936 9.133-9.535Zm-23.417 27.62L42.847.738h14.217L42.966 15.454l11.88 19.044-7.27.017c-6.955 0-8.338-2.316-9.534-3.835l-3.817-6.116-9.518 9.945-21.962.035c1.013-5.957 2.074-11.917 3.11-17.865l.932-2.86L0 17.165l.056-8.715L11.397.745h7.237l-5.502 31.012v-.006Z" clip-rule="evenodd"/><path fill="#0BBBEF" d="M66.224 34.998c-5.224 0-8.846-1.704-11.56-5.114-2.685-3.41-3.595-7.695-2.735-12.858.827-4.94 3.04-9.018 6.634-12.238C62.158 1.603 66.327.01 71.076.01c6.343 0 10.826 2.74 13.452 8.221l-8.47 4.638c-1.196-2.325-3.172-3.491-5.928-3.491-2.207 0-4.161.765-5.865 2.295-1.674 1.499-2.74 3.442-3.198 5.833-.397 2.264-.053 4.19 1.03 5.784 1.082 1.562 2.728 2.342 4.932 2.342 2.543 0 4.75-1.242 6.618-3.728l7.564 5.018c-1.688 2.582-3.834 4.574-6.44 5.975-2.606 1.403-5.457 2.102-8.552 2.102h.005ZM110.584 34.232h-9.604l-.314-4.302h-9.282l-1.893 4.302H79.334L95.656.772h10.753l4.172 33.46h.003Zm-11.3-22.228L94.743 22.28h5.329l-.788-10.276ZM123.716 34.997c-3.431 0-6.217-.725-8.358-2.174-2.143-1.45-3.578-3.529-4.31-6.237l8.002-4.254c.947 2.55 2.801 3.823 5.557 3.823 2.176 0 3.378-.589 3.606-1.77.13-.765-.244-1.354-1.127-1.77a10.243 10.243 0 0 0-1.28-.574c-.397-.16-1.51-.526-3.342-1.1-5.673-2.04-8.03-5.703-7.075-10.996.527-2.963 1.968-5.371 4.319-7.22C122.029.91 124.843 0 128.152 0c2.756 0 5.107.67 7.05 2.007 1.943 1.34 3.406 3.266 4.386 5.784l-7.819 4.302c-.769-2.166-2.21-3.251-4.325-3.251-1.624 0-2.551.574-2.778 1.72-.164.734.105 1.309.805 1.722.791.51 2.162 1.1 4.113 1.77 2.532.892 4.494 1.992 5.888 3.297 1.815 1.69 2.426 4.288 1.832 7.79-.592 3.22-2.063 5.666-4.411 7.338-2.348 1.672-5.407 2.51-9.177 2.51v.008ZM139.213 34.232l6.074-33.46h9.19l-6.073 33.46h-9.191ZM162.644 34.232h-9.191l6.074-33.46h7.353l7.195 16.06 2.914-16.06h9.191l-6.074 33.46h-7.353l-7.195-16.06-2.914 16.06ZM200.492 34.997c-3.462 0-6.437-.892-8.927-2.677-2.398-1.784-4.078-4.03-5.038-6.74-.961-2.708-1.194-5.592-.694-8.65.794-4.62 2.942-8.588 6.445-11.903 3.534-3.346 7.844-5.018 12.93-5.018 2.573 0 4.902.502 6.989 1.504 2.085 1.005 3.731 2.382 4.933 4.135 2.498 3.6 3.364 7.681 2.603 12.238-.763 4.654-2.881 8.668-6.356 12.046-3.414 3.379-7.709 5.068-12.885 5.068v-.003Zm-4.403-11.663c1.205 1.53 2.943 2.296 5.21 2.296 2.268 0 4.283-.765 6.049-2.296 1.765-1.562 2.862-3.505 3.289-5.832.428-2.325.039-4.254-1.168-5.784-1.205-1.562-2.943-2.342-5.211-2.342-2.267 0-4.313.783-6.048 2.342-1.765 1.53-2.862 3.459-3.289 5.784-.428 2.327-.039 4.27 1.168 5.832Z"/></g><defs><clipPath id="a"><path fill="#fff" d="M0 0h220v35H0z"/></clipPath></defs></svg>